<svg id="Calque_1" data-name="Calque 1" xmlns="http://www.w3.org/2000/svg" width="210mm" height="98.7mm" viewBox="0 0 595.28 279.78">
  <title>top</title>
  <g>
    <path d="M.31,543.79V381a3.56,3.56,0,0,1,1.46.45l7.47,3c1.29.52,1.29.51,2.15-.52,2-2.43,4-4.84,6-7.28.41-.5.71-.61,1.25-.19.94.72,1.93,1.36,2.88,2a3.58,3.58,0,0,0,1.06-1.18c4.7-6.36,9.37-12.73,14.1-19.06a7.76,7.76,0,0,0,1.44-3.19c.48-2.38,1.05-4.73,1.54-7.11a1.29,1.29,0,0,1,1.17-1.17c3.74-.76,7.47-1.56,11.18-2.45a20,20,0,0,1,6.11-.57,6.24,6.24,0,0,1,4.58,1.83,3.41,3.41,0,0,0,2.51,1c2,.14,3.9.39,5.85.53a2,2,0,0,1,1.72,1.08c.58.91,1.33,1.73,1.85,2.67A4.11,4.11,0,0,0,78,353.08a2,2,0,0,0,2.19-.85c4-5.53,8.07-11,12.12-16.47.4-.54.69-1.46,1.27-1.47a4.27,4.27,0,0,1,2.87,2.13c1.77,2.61,3.56,5.21,5.28,7.84a7.23,7.23,0,0,0,2.31,2.23c4.75,3,9.47,6.07,14.22,9.08a2.24,2.24,0,0,1,1.19,1.95c.16,2.37.43,4.73.68,7.1a25.56,25.56,0,0,0,.62,4.9c.86,2.75,2,5.41,3.07,8.1.19.5.45.56,1,.37,1.53-.59,3.09-1.14,4.65-1.67,4.44-1.52,8.94-2.86,13.3-4.57,6.62-2.6,13.12-5.49,19.84-7.83a2.38,2.38,0,0,0,1.41-1.3c1.41-2.93,2.88-5.83,4.3-8.75a4.88,4.88,0,0,1,1.19-1.59c2.32-2,4.64-3.95,6.91-6a2.12,2.12,0,0,1,2.1-.55c2.21.5,4.43,1,6.66,1.4a3.9,3.9,0,0,1,2,1c4.35,4,8.75,7.89,13.06,11.9a3.66,3.66,0,0,0,3.3,1.08c3.53-.48,7.08-.86,10.62-1.24a3.84,3.84,0,0,0,2.34-1c1.66-1.54,3.38-3,5.2-4.62l2.72,7.5,1-.42,14-6.21a23.07,23.07,0,0,1,3.05-1.1c6.18-1.79,12.39-3.55,18.54-5.44a24.56,24.56,0,0,1,7.91-.94,13.24,13.24,0,0,1,8.19,2.61,3.5,3.5,0,0,0,2.31.67c2.79-.05,5.58,0,8.37,0,.5,0,1-.09,1.35.49a40.29,40.29,0,0,1,3.52,5.81c1.45,3.53,3,7,4.49,10.54a3.32,3.32,0,0,0,1.83,1.92c2.4,1.09,4.74,2.29,7.11,3.41.75.35,1.36.72,1.32,1.67,0,.3.18.61.17.91,0,.94.56,1.17,1.36,1.32,4.35.83,8.71,1.66,13,2.57a5.07,5.07,0,0,0,2.57-.12q8.44-2.52,16.91-5a12.14,12.14,0,0,0,2.94-1.32q10.25-6.27,20.5-12.48a19.16,19.16,0,0,1,3.88-2.23,10.36,10.36,0,0,1,4.6.06,14.58,14.58,0,0,0,8.67-1.52,24.86,24.86,0,0,1,13-2.62,2.53,2.53,0,0,0,2.05-.83c2.65-2.54,5.35-5,8-7.53.32-.3.65-.59,1-.94.85,1.17,1.63,2.2,2.36,3.26a1.18,1.18,0,0,0,1.3.57c1.38-.17,2.77-.24,4.16-.42a3.28,3.28,0,0,1,2.06.43c2.78,1.49,5.57,2.95,8.35,4.42a2.08,2.08,0,0,0,1.73.3c6.93-2.18,14-4,20.45-7.47,2.09-1.11,4.32-1.95,6.43-3a2,2,0,0,1,2.57.3q12.24,10.25,24.57,20.38a3.53,3.53,0,0,1,1.34,2.46c.51,4.1,1.09,8.19,1.59,12.29a1.46,1.46,0,0,0,1,1.34c2.7,1.15,5.38,2.36,8.06,3.55a5.14,5.14,0,0,0,1.49.4c1.59.17,3.19.33,4.77.58a2.24,2.24,0,0,0,2.18-.74c2.7-2.78,5.46-5.5,8.21-8.24a2.55,2.55,0,0,1,1-.79c.6,1.28,1.21,2.46,1.71,3.7a1.53,1.53,0,0,0,1.36,1c2.3.34,4.59.69,6.88,1.09a2.12,2.12,0,0,0,1.83-.55c1.23-1,2.5-2,3.76-3,2.26-1.8,4.77-3.37,6.72-5.46s3.42-4.78,5.09-7.2l2-2.86c2,2.39,3.79,4.72,5.77,6.88a14,14,0,0,1,3.76,7c.21,1.17.89,1.54,2,1.76q13.35,2.7,26.67,5.5a3.92,3.92,0,0,0,2-.08c2.95-.94,5.9-1.84,8.87-2.71a2.19,2.19,0,0,0,1.54-1.34c1.12-2.55,2.3-5.08,3.46-7.61a8.19,8.19,0,0,0,.63-2.06c.36-2,.72-4.07,1.14-6.09a16.84,16.84,0,0,1,.72-3.58V563.94c-1.35-1.2-2.62-2.5-4.07-3.56a11.54,11.54,0,0,1-3.58-4.94c-.49-1.13-.87-2.32-1.35-3.46a7.09,7.09,0,0,1-.67-3,4.23,4.23,0,0,0-.79-2.6c-.15,1.54-.3,2.87-.4,4.2,0,.6-.14,1.2-.76,1.39a3.48,3.48,0,0,1-2.54.25c-2.74-1.12-5.74-1.8-7.37-4.66a1.39,1.39,0,0,0-.43-.44,14.53,14.53,0,0,1-3.42-4,121.54,121.54,0,0,1-8.44-13.69c-.23-.45-.37-1-.91-1.2-.07-.11.14-.39-.21-.32l.22.31a2.36,2.36,0,0,0,.29,1.19c1.52,3.28,2.82,6.65,4.57,9.82.54,1,1,2,1.59,3.09-1.39.29-2.68.25-3.93.44-1.8.26-1.87.1-1.9-1.78a6.89,6.89,0,0,0-.52-3.6,16.61,16.61,0,0,0-1.41,3,1.86,1.86,0,0,1-1.63,1.45c-2.35.28-4.64,1-7,1a10.18,10.18,0,0,0-3.64.59,3.2,3.2,0,0,1-2.8-.29c-3.51-1.86-7.12-3.53-10.72-5.2a3.38,3.38,0,0,0-2.4-.21c-1.54.4-3.1.79-4.67,1-4.17.66-8.36,1.16-12.51,1.91a12.74,12.74,0,0,1-5-.17q-5.75-1.24-11.42-2.75a23.15,23.15,0,0,1-5.34-2,3.23,3.23,0,0,0-1.87-.65c-.05-.14-.1-.16-.13-.06l.12.07a5.15,5.15,0,0,0,2.09,1.78c2.71,1.78,5.26,3.82,8.2,5.23.29.14.6.37.36.71-.85,1.17-1.15,2.66-2.15,3.74-2.63,2.84-4.9,6-7.47,8.86-.23.25-.32.68-.92.55a27.58,27.58,0,0,1-1.29-3.88,8.34,8.34,0,0,0-3.48-5.41,2.43,2.43,0,0,0-2.1-.61,24.7,24.7,0,0,1-6.92-.13,1.22,1.22,0,0,1-.94-.71,8.51,8.51,0,0,0-4.86-4,17.63,17.63,0,0,1-1.78-.92c-1.33-.65-2.6-1.4-4.14-2,0,1.27,0,2.29,0,3.32a36.21,36.21,0,0,1-.64,7.84,47,47,0,0,0-1,7.95,7.9,7.9,0,0,1-1.61,5.06,4,4,0,0,0-.47,1c-.78,1.85-1.29,3.81-2.19,5.61a23.39,23.39,0,0,0-1.53,4.69,20.45,20.45,0,0,1-.67,2c-1.31,3.54-3,6.91-4.42,10.39a21.39,21.39,0,0,1-1.38,3.31.46.46,0,0,1-.34-.56c.05-3.2-.52-6.37-.36-9.58a6.49,6.49,0,0,0,0-1.08c-.42-3.27-.35-6.57-.56-9.86a3.3,3.3,0,0,0-1.77-3c-.31-1.81-.53-3.64-1.78-5.14a3,3,0,0,1-.61-1.56,15.08,15.08,0,0,1,1.94-3.1c1.9-2.93,2.18-2.12-.54-4.72l-.08-.86c.46-.4.33-1,.34-1.45a58.38,58.38,0,0,0-.55-8.14c-.28-2.6-1.08-5.12-1.09-7.76a13.08,13.08,0,0,0-.54-2.87A3.66,3.66,0,0,0,443,527a32.08,32.08,0,0,1-5.1-2.9c-1.9-1.22-1.62-.56-2.56.68a2.29,2.29,0,0,0-.14.27q-2.7,5.22-5.38,10.44a2.71,2.71,0,0,0-.43,1.46l-.58.16A23.58,23.58,0,0,0,425,537c-.62,0-1.22-.06-1.84-.15-2.4-.37-4.7-1.12-7.06-1.63a48.05,48.05,0,0,1-16.71-6.94c-1.67-1.11-3.4-2.12-5-3.3-.62-.45-1.11-.49-1.51.25-1.5,1.18-2.72,2.66-4.12,3.94a3.57,3.57,0,0,0-1.09,2.15c-.34,1.92-.59,3.86-1,5.76-.35,1.54-.35,3.24-1.25,4.58a46.75,46.75,0,0,1-4.73,5.89c-.64.68-.8.65-1.42-.15s-1.24-1.64-1.81-2.5a6.29,6.29,0,0,0-2.6-2.33,6.88,6.88,0,0,1-2.17-1.45,18.7,18.7,0,0,1,.29-2c.25-1.25.74-2.55.26-3.79-.84-2.21-1.69-4.41-2.32-6.69-.18-.64-.54-.69-1-.15a4.4,4.4,0,0,0-1.26,3.21,7.88,7.88,0,0,1,0,2.61,8.59,8.59,0,0,0,0,4.87c-.41,0-.91-.1-.74.58.11.42,0,.93.47,1.24,0,.31,0,.63,0,.94a44.05,44.05,0,0,0-6.84,6.46c-1.8,2-4.19,2.74-6.45,3.8-.59.28-.94.07-1.27-.43-.62-1-1.29-1.86-1.94-2.8a2.88,2.88,0,0,0-1.22-1.15c-1-.42-2-.86-3-1.24s-1.43-.23-1.59.86-.17,2.05-.36,3.06c-.46,2.45-.64,5.08-3.38,6.33-1.61-.33-2.7-1.62-4.2-2.28a4.67,4.67,0,0,0-.48,2.39,7,7,0,0,1-1.45,4.28,4.75,4.75,0,0,0-1,3.15,8.1,8.1,0,0,1-.68,3.44,9.22,9.22,0,0,0-.28,1,6.45,6.45,0,0,0-1.2,1.6,12.07,12.07,0,0,1-4.23,3.58c0-.24-.1-.41-.05-.53a62.49,62.49,0,0,0,1.73-6.72c.52-2.15,1.09-4.29,1.65-6.44.13-.52.4-1.07-.32-1.44a4,4,0,0,0-.31.37,58.32,58.32,0,0,0-5.08,11.42,13.77,13.77,0,0,1-1.72,3.61,11.73,11.73,0,0,0-1.6,3.66c-.49,0-.62-.46-.94-.69a10.51,10.51,0,0,1-.62-4.65c.05-.71,0-1.43,0-2.14.31-.3.21-.64.13-1a4.74,4.74,0,0,1,.85-4.24c.37-.49.75-1,1.14-1.45.8-.95.81-1.41.1-2.47s-1.12-2-1.65-3a1.49,1.49,0,0,1,.07-1.6c.82-1.37,1.58-2.78,2.46-4.11a1.74,1.74,0,0,0,.08-2.12c-1.72-2.81-3.39-5.65-5.11-8.45-.69-1.13-1-1.22-2.3-.94-1.71.37-3.43.71-5.11,1.15-2.94.77-6,1.15-8.83,2.18-1.57.56-3,1.09-4.38-.34,0,0-.09,0-.14-.05a22.6,22.6,0,0,1-4.21-1.94,1.46,1.46,0,0,0-2,.29c-1.37,1.32-2.92,2.44-4.27,3.78-.91.9-2.19,1.4-2.81,2.6h-.62a20.74,20.74,0,0,0-3.33-1.59,3.18,3.18,0,0,1-1.82-1.56c-2.62-4.79-5.29-9.56-7.93-14.34a17.26,17.26,0,0,0-3.44-4.67.64.64,0,0,0,0,.8c.41,1.06.85,2.11,1.24,3.17,1.47,4,2.92,7.93,4.38,11.89,1.13,3.1,2.29,6.19,3.4,9.29.64,1.77.61,1.78-1,2.64l-.55.29a2.18,2.18,0,0,0-1.18,2,21.37,21.37,0,0,1-2.49,9.77c-.5,1-.9,2-1.36,2.95a9.5,9.5,0,0,1-1.91,3.15c-1.23,1.09-2.49,2.17-3.78,3.18a10.47,10.47,0,0,0-3.78,5.65,1.51,1.51,0,0,1-1.33,1.3,57,57,0,0,1-6.11.76l-.06-.54c-.29-3.11-.53-6.23-.91-9.33a22.24,22.24,0,0,0-1.33-4.9,1,1,0,0,0-.72-.74l-.13-1.83c0-4.07-1-8-1.69-12a9.82,9.82,0,0,0,0,2.76,76.72,76.72,0,0,1,1,8.55,2.37,2.37,0,0,1-1-1.66,6.37,6.37,0,0,0-1.53-2.63c-1-1.21-2-2.39-3-3.56a3.84,3.84,0,0,0-2.7-1.51,38.37,38.37,0,0,1-7.52-1.62c-.93-.3-1.84-.64-2.8-.86a1.38,1.38,0,0,0-1.39.32,73.66,73.66,0,0,1-7.6,5,2.91,2.91,0,0,1-3.21.3,2.38,2.38,0,0,0-1.95-.15,5.3,5.3,0,0,1-1.68.19c-1.61-1.76-3.22-3.53-4.86-5.27-.37-.4-.7-.9-1.34-.94a.61.61,0,0,0-.32-.61.6.6,0,0,0-.62-.61c0-.2,0-.4-.24-.48,0,0-.12,0-.12.06,0,.23.2.32.37.4a.61.61,0,0,0,.62.62.63.63,0,0,0,.3.63,4.85,4.85,0,0,0,1.08,1.83,25.86,25.86,0,0,1,3.27,5,12,12,0,0,1-1.7,0,15.43,15.43,0,0,0-4.29-.22,5,5,0,0,0-2.07.23c-.06-.14-.08-.38-.17-.41-1-.32-1.38-1.15-1.84-2-.32-.58-.84-1-1.15-1.62a1.86,1.86,0,0,0-1.9-1c-2,.06-4,.05-6,.28a17,17,0,0,0-3.75.67,10.06,10.06,0,0,1-3.86,1c-.83-1.47-1.26-3.18-2.7-4.58a19,19,0,0,0,1.23,4.19c.48,1.36.31,1.63-1.08,1.87-.25,0-.51,0-.77.06l-4.6.45a47.33,47.33,0,0,1-5.06.47,7.09,7.09,0,0,0-2.94-.62,11.74,11.74,0,0,1-2.45-.06c-2.47-.56-4.57.46-6.72,1.36l-.91-.06a21.86,21.86,0,0,0-4.82-2,2,2,0,0,0-1.91.27c-1.93,1.36-4,2.52-5.63,4.31-.29.32-.54.79-1.11.63-.18-.26-.08-.5,0-.75.27-1.47.58-2.92.83-4.4.41-2.49.5-5,.81-7.5a14.17,14.17,0,0,0-.41-5.3c-.38,2-.79,3.71-1,5.43a72,72,0,0,1-2.36,11.17c-.63,2.12-1.43,4.21-1.12,6.49a2,2,0,0,1-.35,1.33l-2.72,4.28c-.31-1.71-.79-3.08-.52-4.62.24-1.34.78-2.68.24-4.09a11.11,11.11,0,0,1-.68-4.71,20.69,20.69,0,0,0-.49-4.44c0,3-.52,6.08.41,9.06a2.69,2.69,0,0,1,.06,1.23c-.58,2.69,0,5.47-.6,8.15-.34-.32-.28-.75-.29-1.16,0-.87-.05-1.75,0-2.62a2.46,2.46,0,0,0-1-2.29c-.68-.55-1.36-1.1-2-1.69-1.81-1.68-3.53-3.46-5.42-5a27.13,27.13,0,0,0-3.07-2.57c-.41-.25-.8-.53-1.28-.35a5.09,5.09,0,0,0-2.83,1.75c-1.2,1.92-3.17,3-4.7,4.64a1.48,1.48,0,0,1-1.14.37,1.23,1.23,0,0,1-.28-1c.09-4.37-.11-8.74-.31-13.11-.06-1.35,0-2.71,0-4.06a32.56,32.56,0,0,0-.7,5.34,110.8,110.8,0,0,0-.84,11.21c0,1.39,0,2.79,0,4.18A11.44,11.44,0,0,1,114,574.3a15.09,15.09,0,0,0-1.72,3.28c-.68,1.83-1.33,3.68-1.93,5.54a7.73,7.73,0,0,0-.62,3.15v0a.49.49,0,0,0-.24.49,9.15,9.15,0,0,1-1.26,2.32.55.55,0,0,0-.36.64l0,0a.91.91,0,0,0-.74.48c-.67.91-1.31,1.85-2.05,2.71a8,8,0,0,0-1.7,3.25c-.44,1.69-1,3.35-1.34,5.07a12.27,12.27,0,0,1-2.88,5.53h0a22.54,22.54,0,0,1,1.43-8.17,11.33,11.33,0,0,0,.73-4.39,45.65,45.65,0,0,1,.09-5.1,83,83,0,0,0,.52-8.48,3.28,3.28,0,0,0-.83-2.31c.12,4.51-.41,9-.34,13.46a17,17,0,0,1-2.13,9.32,10.39,10.39,0,0,0-1.66,6.8,1.41,1.41,0,0,1-.28,1.31c-.38-.91,0-1.84-.09-2.75,0-.67,0-1.34.07-2a27.81,27.81,0,0,1,.09-3.54c.27-1.83.33-3.67.48-5.5.19-2.29-.09-4.62.33-6.9a9.65,9.65,0,0,1,.13-1.08,5.71,5.71,0,0,0,.47-2.4,13.33,13.33,0,0,0-1.44-4.69,2.09,2.09,0,0,1-.28-1.61c.29-1.82.44-3.66.57-5.5.15-2.17-.59-4.29-.16-6.45a.72.72,0,0,0-.11-.44,17.77,17.77,0,0,0-1.57-3C94,561.7,93.14,561,90.9,562.2a2.94,2.94,0,0,1-1.6.5c-.82-2.28-1.66-4.55-2.45-6.84a11.77,11.77,0,0,1-1-3.07,7.2,7.2,0,0,0-.77-2.29c-.26,1,.21,1.59.25,2.3a19.29,19.29,0,0,0,.37,2c.46,3.26.91,6.51,1.64,9.73.8,3.5,1.47,7,2.17,10.57.08.37.22.8-.16,1.12-3.14-1.77-3.35-2-5-5A4.6,4.6,0,0,0,83,569.32a34.77,34.77,0,0,1-3.79-3.17,18.84,18.84,0,0,0-5.06-3.5,69,69,0,0,1-7-7.76,11.74,11.74,0,0,0-4.35-3.34c-3.32-1.77-6.87-3-10.23-4.74a5.64,5.64,0,0,0-2.7-.54,26.71,26.71,0,0,1-3.68-.29,2.83,2.83,0,0,1-1.79-1.08c-.47-.51-.36-.91.24-1.22a7.24,7.24,0,0,0,1.92-1.28c2.07-2,2.67-4.68,3.39-7.3a.61.61,0,0,0,.31-.62c.14,0,.17-.08.07-.11a.64.64,0,0,0-.06.12.67.67,0,0,0-.31.62,4.77,4.77,0,0,0-1.39,1.82,9.36,9.36,0,0,1-5,4.34A57.33,57.33,0,0,1,36,543.94a4.67,4.67,0,0,1-3.72-.46,46.31,46.31,0,0,0-6.81-3.27c-.43-.18-.84-.38-.95-.93-.26-1.36-.79-2.65-1-4-.33-2.55-.65-5.09-1.21-7.6a60.89,60.89,0,0,0-1.85-5.89,34.86,34.86,0,0,0-1.73-5.17,19,19,0,0,0,1.34,5.16,17,17,0,0,0,.33,2c.62,2.44,1.23,4.89,1.74,7.36a12.58,12.58,0,0,1,.27,4.59c-.25,1.63-.8,3.19-1,4.82a2.63,2.63,0,0,1-3.33,2.45c-.56-.1-1.11-.23-1.66-.34s-1.15-.1-1.49.51l-.39,0-1-.92c-1.42-1.26-2.87-2.14-4.84-1a14.5,14.5,0,0,1-2.34.73,3.56,3.56,0,0,0-1.61.86A44.32,44.32,0,0,1,.31,543.79Z" transform="translate(-0.31 -334.29)" style="fill: #361014"/>
    <path d="M595.59,565.49a19.73,19.73,0,0,0-5.83-4.92,72.38,72.38,0,0,1-5.73-4.48,5.29,5.29,0,0,0-2.32-1.15c-.2,0-.39-.14-.59-.16-3-.35-5.33-2.28-7.9-3.6A4.72,4.72,0,0,1,572,550c-1.11-1.23-2.23-2.44-3.3-3.7a2,2,0,0,0-1.72-.84c-.41,0-.83-.06-1.24,0a20.69,20.69,0,0,1-7.45-1.08,3.23,3.23,0,0,0-1.66-.07c-2.91.43-5.75,1.26-8.73,1.21a3.76,3.76,0,0,1-2.33-.62,7.45,7.45,0,0,0-4.31-1.46,6,6,0,0,1-2.85-.64,2.46,2.46,0,0,0-1.51-.17c-3.24.22-6.49.44-9.73.68a20.7,20.7,0,0,0-4.28,1.29,14,14,0,0,1-8.65.15,13.62,13.62,0,0,0-8-.29c-2.69.62-4.71,2.21-6.89,3.65a1.75,1.75,0,0,0-.64,1.19,14.54,14.54,0,0,1-2.12,4.44c-1.46,2.16-2.19,4.66-3.3,7a6.37,6.37,0,0,1-.9,1.73c-.65-1.45-1.27-2.86-1.9-4.27-.3-.66-.6-1.32-.91-2-.5-1-1.1-2-2.46-2a1.67,1.67,0,0,1-1.15-.71,27.78,27.78,0,0,1-1.83-2.1,3.1,3.1,0,0,0-2.64-1.29c-1.09,0-2.17-.1-3.25-.23-.78-.09-1.37.39-2.06.56a2.76,2.76,0,0,0-2.12,1.46,2.43,2.43,0,0,1-2.45,1.31c-.26,0-.52.08-.77.07-2-.05-2.95,1.23-3.64,2.79s-1.36,3.24-1.95,4.89a123.11,123.11,0,0,1-8.44,17.88,10.08,10.08,0,0,0-1,2.44c-.91,3.6-2.36,7-3.54,10.55a.91.91,0,0,1-.1.29,11.43,11.43,0,0,0-2.11,4.76c-.06.21-.12.43-.39.35s-.24-.29-.26-.5a.52.52,0,0,0-.22-.48l0-.06a30.26,30.26,0,0,0-1.48-10.77c-1.14-3.42-1.17-3.45.54-6.76a6.13,6.13,0,0,0,.51-4,6.3,6.3,0,0,1-.17-1.21c0-2.67-.35-5.32-.54-8a3.3,3.3,0,0,1,1.77,3c.21,3.29.14,6.59.56,9.86a6.49,6.49,0,0,1,0,1.08c-.16,3.21.41,6.38.36,9.58a.46.46,0,0,0,.34.56,21.39,21.39,0,0,0,1.38-3.31c1.42-3.48,3.11-6.85,4.42-10.39a20.45,20.45,0,0,0,.67-2,23.39,23.39,0,0,1,1.53-4.69c.9-1.8,1.41-3.76,2.19-5.61a4,4,0,0,1,.47-1,7.9,7.9,0,0,0,1.61-5.06,47,47,0,0,1,1-7.95,36.21,36.21,0,0,0,.64-7.84c0-1,0-2.05,0-3.32,1.54.62,2.81,1.37,4.14,2a17.63,17.63,0,0,0,1.78.92,8.51,8.51,0,0,1,4.86,4,1.22,1.22,0,0,0,.94.71,24.7,24.7,0,0,0,6.92.13,2.43,2.43,0,0,1,2.1.61,8.34,8.34,0,0,1,3.48,5.41,27.58,27.58,0,0,0,1.29,3.88c.6.13.69-.3.92-.55,2.57-2.88,4.84-6,7.47-8.86,1-1.08,1.3-2.57,2.15-3.74.24-.34-.07-.57-.36-.71-2.94-1.41-5.49-3.45-8.2-5.23a5.15,5.15,0,0,1-2.09-1.78h0a3.23,3.23,0,0,1,1.87.65,23.15,23.15,0,0,0,5.34,2q5.67,1.51,11.42,2.75a12.74,12.74,0,0,0,5,.17c4.15-.75,8.34-1.25,12.51-1.91,1.57-.25,3.13-.64,4.67-1a3.38,3.38,0,0,1,2.4.21c3.6,1.67,7.21,3.34,10.72,5.2a3.2,3.2,0,0,0,2.8.29,10.18,10.18,0,0,1,3.64-.59c2.39,0,4.68-.68,7-1a1.86,1.86,0,0,0,1.63-1.45,16.61,16.61,0,0,1,1.41-3,6.89,6.89,0,0,1,.52,3.6c0,1.88.1,2,1.9,1.78,1.25-.19,2.54-.15,3.93-.44-.57-1.1-1.05-2.11-1.59-3.09-1.75-3.17-3.05-6.54-4.57-9.82a2.36,2.36,0,0,1-.29-1.19h0c.54.22.68.75.91,1.2a121.54,121.54,0,0,0,8.44,13.69,14.53,14.53,0,0,0,3.42,4,1.39,1.39,0,0,1,.43.44c1.63,2.86,4.63,3.54,7.37,4.66A3.48,3.48,0,0,0,584,552c.62-.19.72-.79.76-1.39.1-1.33.25-2.66.4-4.2a4.23,4.23,0,0,1,.79,2.6,7.09,7.09,0,0,0,.67,3c.48,1.14.86,2.33,1.35,3.46a11.54,11.54,0,0,0,3.58,4.94c1.45,1.06,2.72,2.36,4.07,3.56Z" transform="translate(-0.31 -334.29)" style="fill: #7f2c06"/>
    <path d="M285.55,548.78c.62-1.2,1.9-1.7,2.81-2.6,1.35-1.34,2.9-2.46,4.27-3.78a1.46,1.46,0,0,1,2-.29,22.6,22.6,0,0,0,4.21,1.94s.11,0,.14.05c1.36,1.43,2.81.9,4.38.34,2.86-1,5.89-1.41,8.83-2.18,1.68-.44,3.4-.78,5.11-1.15,1.3-.28,1.61-.19,2.3.94,1.72,2.8,3.39,5.64,5.11,8.45a1.74,1.74,0,0,1-.08,2.12c-.88,1.33-1.64,2.74-2.46,4.11a1.49,1.49,0,0,0-.07,1.6c.53,1,1,2,1.65,3s.7,1.52-.1,2.47c-.39.48-.77,1-1.14,1.45a4.74,4.74,0,0,0-.85,4.24c.08.36.18.7-.13,1a10.49,10.49,0,0,0-1.68.15c-2.12.3-4.21,1-6.39.45-.56-.48-.57-1.18-.75-1.82a1.56,1.56,0,0,0-1.42-1.37,6.91,6.91,0,0,1-1.9-.61,6.19,6.19,0,0,1-3-1.86c-1.37-2-3-3.89-3.66-6.37a4.73,4.73,0,0,0-3.13-3.64,79,79,0,0,1-8.27-3.78A49.48,49.48,0,0,1,285.55,548.78Z" transform="translate(-0.31 -334.29)" style="fill: #4a2115"/>
    <path d="M215.79,559.29a5.3,5.3,0,0,0,1.68-.19,2.38,2.38,0,0,1,1.95.15,2.91,2.91,0,0,0,3.21-.3,73.66,73.66,0,0,0,7.6-5,1.38,1.38,0,0,1,1.39-.32c1,.22,1.87.56,2.8.86a38.37,38.37,0,0,0,7.52,1.62,3.84,3.84,0,0,1,2.7,1.51c1,1.17,2,2.35,3,3.56a6.37,6.37,0,0,1,1.53,2.63,2.37,2.37,0,0,0,1,1.66c0,.21,0,.42,0,.63l0,6.84-1.07.86c-.26.22-.53.36-.83.14-.91-.64-1.83-.35-2.8-.16a11.94,11.94,0,0,1-3.13.7,11.29,11.29,0,0,0-3.66.32c-1.06-.72-2.17-1.38-3.16-2.18a6,6,0,0,0-3.69-1.29,5.94,5.94,0,0,1-4.23-1.51,5.82,5.82,0,0,0-2.84-1.78,31.23,31.23,0,0,1-3.3-1.27,4.08,4.08,0,0,1-2.1-1.73,22.84,22.84,0,0,1-1.68-3.12,5.73,5.73,0,0,0-1.93-2.34C215.8,559.49,215.79,559.39,215.79,559.29Z" transform="translate(-0.31 -334.29)" style="fill: #4a2115"/>
    <path d="M448.12,565.39c.19,2.65.56,5.3.54,8a6.3,6.3,0,0,0,.17,1.21,6.13,6.13,0,0,1-.51,4c-1.71,3.31-1.68,3.34-.54,6.76a30.26,30.26,0,0,1,1.48,10.77c-1.65-2.44-2.95-5.07-4.46-7.59a2.76,2.76,0,0,1-.28-1.35c-.28-3.55-.56-7.1-.8-10.65-.25-3.81-.56-7.61-1-11.41a14.85,14.85,0,0,0-1.59-4.32,1.91,1.91,0,0,0-1.36-.92,5,5,0,0,1-3.09-2.6c-.07-.14-.18-.26-.25-.39a19.85,19.85,0,0,0-5.94-6.4,33.4,33.4,0,0,1-5.41-5.48c.94-1.88,1.89-3.75,2.81-5.64a6.65,6.65,0,0,0,.94-2.25l.58-.17a12,12,0,0,0,4-.43,2.17,2.17,0,0,1,2.15.76c1.71,1.64,3.24,3.44,4.81,5.2s2.94,3.57,4.49,5.27c.71.77,1.16,1.83,2.24,2.25,0,.28.05.57.08.86-.63,2.12-1.27,4.23-1.85,6.36-.14.5-.29,1.16.45,1.46a3,3,0,0,0,.61,1.56C447.59,561.75,447.81,563.58,448.12,565.39Z" transform="translate(-0.31 -334.29)" style="fill: #91400b"/>
    <path d="M447.05,550c-1.08-.42-1.53-1.48-2.24-2.25-1.55-1.7-2.95-3.55-4.49-5.27s-3.1-3.56-4.81-5.2a2.17,2.17,0,0,0-2.15-.76,12,12,0,0,1-4,.43,2.71,2.71,0,0,1,.43-1.46q2.69-5.22,5.38-10.44a2.29,2.29,0,0,1,.14-.27c.94-1.24.66-1.9,2.56-.68A32.08,32.08,0,0,0,443,527a3.66,3.66,0,0,1,2.2,2.78,13.08,13.08,0,0,1,.54,2.87c0,2.64.81,5.16,1.09,7.76a58.38,58.38,0,0,1,.55,8.14C447.38,549.06,447.51,549.61,447.05,550Z" transform="translate(-0.31 -334.29)" style="fill: #4a2115"/>
    <path d="M281.84,553.43a9.32,9.32,0,0,1-3.26,3.83,4.65,4.65,0,0,0-1.75,2.27,131.37,131.37,0,0,1-6.61,13.61,17,17,0,0,1-3.34,4.43,37.81,37.81,0,0,0-5,6.07,82.35,82.35,0,0,1-6.46,7.87,40.78,40.78,0,0,1-1.49-8,57,57,0,0,0,6.11-.76,1.51,1.51,0,0,0,1.33-1.3,10.47,10.47,0,0,1,3.78-5.65c1.29-1,2.55-2.09,3.78-3.18a9.5,9.5,0,0,0,1.91-3.15c.46-1,.86-2,1.36-2.95a21.37,21.37,0,0,0,2.49-9.77,2.18,2.18,0,0,1,1.18-2l.55-.29c1.6-.86,1.63-.87,1-2.64-1.11-3.1-2.27-6.19-3.4-9.29-1.46-4-2.91-7.93-4.38-11.89-.39-1.06-.83-2.11-1.24-3.17a.64.64,0,0,1,0-.8,17.26,17.26,0,0,1,3.44,4.67c2.64,4.78,5.31,9.55,7.93,14.34a3.18,3.18,0,0,0,1.82,1.56,20.74,20.74,0,0,1,3.33,1.59c0,.62-.56.78-.93,1.12C283,550.86,281.92,551.86,281.84,553.43Z" transform="translate(-0.31 -334.29)" style="fill: #7f2c06"/>
    <path d="M73.78,563.06c-2.5-2.08-5-4.15-7.47-6.25a7.73,7.73,0,0,0-2.09-1.28c-4.19-1.72-8.39-3.42-12.54-5.23a21.86,21.86,0,0,0-5.56-1.21A4.82,4.82,0,0,1,43.67,548a7.78,7.78,0,0,0-4.83-2.14c-1.38,0-2.76-.35-4,.45-.55.35-1,0-1.43-.27l-7.17-3.61c-1.61-.82-2.47-.7-3.83.55a19.16,19.16,0,0,0-1.43,1.42,1.24,1.24,0,0,1-1.37.35,32.88,32.88,0,0,1-4.65-1.64c.34-.61.9-.62,1.49-.51s1.1.24,1.66.34a2.63,2.63,0,0,0,3.33-2.45c.22-1.63.77-3.19,1-4.82a12.58,12.58,0,0,0-.27-4.59c-.51-2.47-1.12-4.92-1.74-7.36a17,17,0,0,1-.33-2h.39a60.89,60.89,0,0,1,1.85,5.89c.56,2.51.88,5.05,1.21,7.6.18,1.39.71,2.68,1,4,.11.55.52.75.95.93a46.31,46.31,0,0,1,6.81,3.27,4.67,4.67,0,0,0,3.72.46,57.33,57.33,0,0,0,7.55-2.67,9.36,9.36,0,0,0,5-4.34,4.77,4.77,0,0,1,1.39-1.82h0c-.72,2.62-1.32,5.3-3.39,7.3a7.24,7.24,0,0,1-1.92,1.28c-.6.31-.71.71-.24,1.22A2.83,2.83,0,0,0,46.15,546a26.71,26.71,0,0,0,3.68.29,5.64,5.64,0,0,1,2.7.54c3.36,1.69,6.91,3,10.23,4.74a11.74,11.74,0,0,1,4.35,3.34,69,69,0,0,0,7,7.76Z" transform="translate(-0.31 -334.29)" style="fill: #7f2c06"/>
    <path d="M281.84,553.43c.08-1.57,1.11-2.57,2.16-3.54.37-.34.92-.5.93-1.12h.62a49.48,49.48,0,0,0,5.81,2.83,79,79,0,0,0,8.27,3.78,4.73,4.73,0,0,1,3.13,3.64c.63,2.48,2.29,4.34,3.66,6.37a6.19,6.19,0,0,0,3,1.86,6.91,6.91,0,0,0,1.9.61,1.56,1.56,0,0,1,1.42,1.37c.18.64.19,1.34.75,1.82a42.63,42.63,0,0,0,2.19,5.59,1.87,1.87,0,0,0,2.18,1.06,23.75,23.75,0,0,1,4.28-.46c.32.23.45.7.94.69.69,2.22-.07,4.24-.79,6.29-.34,1-.49,2-.82,3a20,20,0,0,1-.95,2.93c-1.57-2.49-3.22-4.93-3.86-7.86a4.61,4.61,0,0,0-1.23-2.12,13.59,13.59,0,0,1-3.53-7.73A10,10,0,0,0,311,570a2.59,2.59,0,0,0-2.62-1.92c-2.37,0-3.92-1.68-5.76-2.76-.43-.25-.42-.71-.45-1.1-.23-3.09-2.66-4.76-4.42-6.86a2,2,0,0,0-1.29-.47,13.24,13.24,0,0,1-4.12-1.27c-2.45-1.23-5.18-1.3-7.79-1.84A6.11,6.11,0,0,0,281.84,553.43Z" transform="translate(-0.31 -334.29)" style="fill: #91400b"/>
    <path d="M73.77,563.06l.38-.41a18.84,18.84,0,0,1,5.06,3.5A34.77,34.77,0,0,0,83,569.32a4.6,4.6,0,0,1,1.39,1.82c1.6,3.06,1.81,3.27,5,5,.38-.32.24-.75.16-1.12-.7-3.53-1.37-7.07-2.17-10.57-.73-3.22-1.18-6.47-1.64-9.73-.09-.67-.35-1.29-.38-2h.53a11.77,11.77,0,0,0,1,3.07c.79,2.29,1.63,4.56,2.45,6.84.92,4,1.91,8,3.12,11.89a67.59,67.59,0,0,1,2.41,10,7.67,7.67,0,0,0,1.29,3.57,21.8,21.8,0,0,1-.56,6.28,15.82,15.82,0,0,0-.4,3.83c-.11,2.62.64,5.1,1,7.64a.63.63,0,0,0,.5.52c.12.91-.29,1.84.09,2.75,0,1.07,0,2.13,0,3.19a8,8,0,0,1-2-4.36c-.4-2.91-1.1-5.78-1.71-8.65a31.26,31.26,0,0,1-.54-5.7c-.1-4.25-.77-8.43-1.21-12.64a1.69,1.69,0,0,0-.84-1.37,23,23,0,0,1-7.49-8.09,4.14,4.14,0,0,0-1.24-1.36,31.28,31.28,0,0,1-6.08-5.47A17.79,17.79,0,0,0,73.77,563.06Z" transform="translate(-0.31 -334.29)" style="fill: #91400b"/>
    <path d="M253.93,583.46a40.78,40.78,0,0,0,1.49,8,.93.93,0,0,1-.15.26c-2,1.67-2.11,1.66-3.66-.34-.65-.85-1.47-1.61-1.46-2.82,0-.52-.5-.64-.88-.73a3.44,3.44,0,0,1-1.66-1.08l-7.45-7.45a2.86,2.86,0,0,0-1.19-1,8.92,8.92,0,0,1-3.91-2.69,14.11,14.11,0,0,0-6.87-3.9,16.76,16.76,0,0,1-10.13-6.89,5.25,5.25,0,0,0-4.8-2.23,6.23,6.23,0,0,1-2.15-.12c.38-.78,1.11-.75,1.82-.8a5.39,5.39,0,0,0,2.18-.21l-.88-1.62c.45-.49,1-.26,1.58-.33a5.73,5.73,0,0,1,1.93,2.34,22.84,22.84,0,0,0,1.68,3.12,4.08,4.08,0,0,0,2.1,1.73,31.23,31.23,0,0,0,3.3,1.27,5.82,5.82,0,0,1,2.84,1.78,5.94,5.94,0,0,0,4.23,1.51,6,6,0,0,1,3.69,1.29c1,.8,2.1,1.46,3.16,2.18a3,3,0,0,0,1,1,20.43,20.43,0,0,1,4.13,3.43A22.46,22.46,0,0,0,248,583c.61.48,1,.41,1.09-.28.29-1.78,1.2-3.41,1.3-5.21.08-1.51.39-3.06-.2-4.55q0-3.42,0-6.84h.57c.05.61.09,1.22.13,1.83a15.83,15.83,0,0,0,.62,6.69,9,9,0,0,1,.4,4.24,4,4,0,0,0,1.94,4Z" transform="translate(-0.31 -334.29)" style="fill: #91400b"/>
    <path d="M393.44,529.2c-1.76,3.72-3.54,7.43-5.28,11.16a7.87,7.87,0,0,1-1.65,2.39c-1.35,1.34-2.74,2.66-4,4.11a20.87,20.87,0,0,1-5.91,4.4,1.07,1.07,0,0,1-1.5-.13,1.91,1.91,0,0,0-1.68-.59c-.77.09-1.12-.28-1.23-1a8.33,8.33,0,0,0-.34-1.18,2.93,2.93,0,0,0-3.21-2.44l-1.54-.06c.39-.34,1.1-.1,1.28-.86a4.12,4.12,0,0,0-.07-3.05c0-.31,0-.63,0-.94.44-.44.23-1,.28-1.52,1.41.33,2.55,1.32,4,1.61a6.88,6.88,0,0,0,2.17,1.45,6.29,6.29,0,0,1,2.6,2.33c.57.86,1.17,1.69,1.81,2.5s.78.83,1.42.15a46.75,46.75,0,0,0,4.73-5.89c.9-1.34.9-3,1.25-4.58.43-1.9.68-3.84,1-5.76a3.57,3.57,0,0,1,1.09-2.15c1.4-1.28,2.62-2.76,4.12-3.94A17.54,17.54,0,0,1,393.44,529.2Z" transform="translate(-0.31 -334.29)" style="fill: #91400b"/>
    <path d="M393.44,529.2a17.54,17.54,0,0,0-.62-4c.4-.74.89-.7,1.51-.25,1.63,1.18,3.36,2.19,5,3.3a48.05,48.05,0,0,0,16.71,6.94c2.36.51,4.66,1.26,7.06,1.63.62.09,1.22.12,1.84.15a23.58,23.58,0,0,1,3.85.16,6.61,6.61,0,0,1-.94,2.26c-.92,1.89-1.87,3.76-2.81,5.64-3.25-3.06-7.18-5.16-10.94-7.45-2-1.25-4.45-1.85-6.68-2.8a38.3,38.3,0,0,0-10-3.07A3.26,3.26,0,0,1,396,531C395.12,530.38,394.27,529.79,393.44,529.2Z" transform="translate(-0.31 -334.29)" style="fill: #7f2c06"/>
    <path d="M320.5,590.13a20,20,0,0,0,.95-2.93c.33-1,.48-2,.82-3,.72-2.05,1.48-4.07.79-6.29a11.73,11.73,0,0,1,1.6-3.66,13.77,13.77,0,0,0,1.72-3.61,58.32,58.32,0,0,1,5.08-11.42,4,4,0,0,1,.31-.37c.72.37.45.92.32,1.44-.56,2.15-1.13,4.29-1.65,6.44a62.49,62.49,0,0,1-1.73,6.72c0,.12,0,.29.05.53a12.07,12.07,0,0,0,4.23-3.58,6.45,6.45,0,0,1,1.2-1.6l.72.18a6.29,6.29,0,0,1-3.22,3.93,2.92,2.92,0,0,0-1.68,2.39c-.25,1.47-.7,2.9-1,4.37a7,7,0,0,1-1.28,2.94,20.93,20.93,0,0,0-2.06,3.08c-1,2-2.74,3.32-4.31,4.79C320.81,591.06,320.61,590.68,320.5,590.13Z" transform="translate(-0.31 -334.29)" style="fill: #7f2c06"/>
    <path d="M96.12,588.15a7.67,7.67,0,0,1-1.29-3.57,67.59,67.59,0,0,0-2.41-10c-1.21-3.92-2.2-7.9-3.12-11.89a2.94,2.94,0,0,0,1.6-.5c2.24-1.21,3.07-.5,4.34,1.11a17.77,17.77,0,0,1,1.57,3,.72.72,0,0,1,.11.44c-.43,2.16.31,4.28.16,6.45-.13,1.84-.28,3.68-.57,5.5a2.09,2.09,0,0,0,.28,1.61A13.33,13.33,0,0,1,98.23,585a5.71,5.71,0,0,1-.47,2.4,9.65,9.65,0,0,0-.13,1.08Z" transform="translate(-0.31 -334.29)" style="fill: #4a2115"/>
    <path d="M158.43,560.85a2,2,0,0,0-1.2.06,5.05,5.05,0,0,1-3.2.88c-.34,0-.56.23-.77.45a1.15,1.15,0,0,1-.8.42c-2.21,0-3.53,1.76-5.23,2.76a1.53,1.53,0,0,0-.56,1.06,17.46,17.46,0,0,1-2.43,5.12,48.87,48.87,0,0,0-2.74,6,5.73,5.73,0,0,1-.74,1.51l-.4.08,0-.1,0,.1a6.14,6.14,0,0,0-.85-3.53l.3-1.23c.63-2.68,0-5.46.6-8.15a2.69,2.69,0,0,0-.06-1.23c-.93-3-.42-6-.41-9.06a20.69,20.69,0,0,1,.49,4.44,11.11,11.11,0,0,0,.68,4.71c.54,1.41,0,2.75-.24,4.09-.27,1.54.21,2.91.52,4.62l2.72-4.28a2,2,0,0,0,.35-1.33c-.31-2.28.49-4.37,1.12-6.49a72,72,0,0,0,2.36-11.17c.22-1.72.63-3.43,1-5.43a14.17,14.17,0,0,1,.41,5.3c-.31,2.49-.4,5-.81,7.5-.25,1.48-.56,2.93-.83,4.4-.05.25-.15.49,0,.75.57.16.82-.31,1.11-.63,1.61-1.79,3.7-3,5.63-4.31a2,2,0,0,1,1.91-.27,21.86,21.86,0,0,1,4.82,2A6.61,6.61,0,0,1,158.43,560.85Z" transform="translate(-0.31 -334.29)" style="fill: #7f2c06"/>
    <path d="M139.81,574.46l-.3,1.23a1.79,1.79,0,0,1-.62-1.2c-.19-.85-.43-1.69-.61-2.54a3.15,3.15,0,0,0-1.16-1.91c-1.53-1.21-3-2.5-4.46-3.79a1.08,1.08,0,0,0-1.39-.2c-.45.24-1,.56-1.44.17-1.17-1-2.53-.61-3.84-.72a4.47,4.47,0,0,0-3.44,1c-1,.88-2.16,1.15-3.27,0a2.83,2.83,0,0,0-.81-.42l-.36-.59a1.48,1.48,0,0,0,1.14-.37c1.53-1.59,3.5-2.72,4.7-4.64a5.09,5.09,0,0,1,2.83-1.75c.48-.18.87.1,1.28.35a27.13,27.13,0,0,1,3.07,2.57c1.89,1.58,3.61,3.36,5.42,5,.64.59,1.32,1.14,2,1.69a2.46,2.46,0,0,1,1,2.29c-.06.87,0,1.75,0,2.62C139.53,573.71,139.47,574.14,139.81,574.46Z" transform="translate(-0.31 -334.29)" style="fill: #4a2115"/>
    <path d="M187.22,556.83a10.06,10.06,0,0,0,3.86-1,17,17,0,0,1,3.75-.67c2-.23,4-.22,6-.28a1.86,1.86,0,0,1,1.9,1c.31.57.83,1,1.15,1.62.46.8.86,1.63,1.84,2,.09,0,.11.27.17.41a1.14,1.14,0,0,1-.68.32,40.55,40.55,0,0,1-6.48,1.16c-1.33.12-2.71.53-4-.45a3.28,3.28,0,0,0-1.17-.37,26.06,26.06,0,0,1-2.66-.73C189.4,559.22,187.88,558.54,187.22,556.83Z" transform="translate(-0.31 -334.29)" style="fill: #4a2115"/>
    <path d="M368.34,541.93a4.12,4.12,0,0,1,.07,3.05c-.18.76-.89.52-1.28.86l-2.54,2.5a15.82,15.82,0,0,1-6.6,4.15,9.84,9.84,0,0,0-2,1.15c-.62.37-1.2.81-1.84,1.13-1.34.67-1.78.48-2.28-.85-.76-2-1.24-2.37-3.44-2.4a.87.87,0,0,0-.83.55c-.51.84-1.07,1.66-1.52,2.52a5.13,5.13,0,0,1-2.87,2.84l-.95-.33a2.36,2.36,0,0,1,0-.28c2.74-1.25,2.92-3.88,3.38-6.33.19-1,.21-2,.36-3.06s.5-1.27,1.59-.86,2,.82,3,1.24a2.88,2.88,0,0,1,1.22,1.15c.65.94,1.32,1.85,1.94,2.8.33.5.68.71,1.27.43,2.26-1.06,4.65-1.81,6.45-3.8A44.05,44.05,0,0,1,368.34,541.93Z" transform="translate(-0.31 -334.29)" style="fill: #7f2c06"/>
    <path d="M187.22,556.83c.66,1.71,2.18,2.39,3.71,3a26.06,26.06,0,0,0,2.66.73,3.28,3.28,0,0,1,1.17.37c1.24,1,2.62.57,4,.45a40.55,40.55,0,0,0,6.48-1.16,1.14,1.14,0,0,0,.68-.32,5,5,0,0,1,2.07-.23,3,3,0,0,0,1.28,1.45,2.92,2.92,0,0,1,1.32,1.39,5.18,5.18,0,0,1-2.69-.55,7.06,7.06,0,0,0-4.38-.2,33.61,33.61,0,0,1-7.79,1.13,2.43,2.43,0,0,1-1.71-.51,10.08,10.08,0,0,0-5.32-1.84,3.35,3.35,0,0,1-2.06-.52,1.63,1.63,0,0,0-1.17-.27c-2.93.2-5.87.34-8.81.58a28.85,28.85,0,0,0-5.81,1.56,10.19,10.19,0,0,1-4,.43c-1.44-.13-2.88-.23-4.33-.27a7.78,7.78,0,0,1-4.09-1.2,6.61,6.61,0,0,0,2.79-.94l.91.06c2.13,1,4.26,2.09,6.67.8a4.34,4.34,0,0,1,.89-.25l4.55-1.23a47.33,47.33,0,0,0,5.06-.47l4.6-.45c.26,0,.52,0,.77-.06,1.39-.24,1.56-.51,1.08-1.87a19,19,0,0,1-1.23-4.19C186,553.65,186.39,555.36,187.22,556.83Z" transform="translate(-0.31 -334.29)" style="fill: #91400b"/>
    <path d="M96.7,612.36c0-1.06,0-2.12,0-3.19a1.41,1.41,0,0,0,.28-1.31,10.39,10.39,0,0,1,1.66-6.8,17,17,0,0,0,2.13-9.32c-.07-4.47.46-9,.34-13.46a3.28,3.28,0,0,1,.83,2.31,83,83,0,0,1-.52,8.48,45.65,45.65,0,0,0-.09,5.1,11.33,11.33,0,0,1-.73,4.39,22.54,22.54,0,0,0-1.43,8.17c-.14,0-.16.08-.07.1s0-.07.06-.11a12.27,12.27,0,0,0,2.88-5.53c.32-1.72.9-3.38,1.34-5.07a8,8,0,0,1,1.7-3.25c.74-.86,1.38-1.8,2.05-2.71a.91.91,0,0,1,.74-.48c-.84,2.11-2.1,4-3.11,6a5.55,5.55,0,0,0-.61,1.25c-.83,4.1-2.88,7.8-3.76,11.89a3.33,3.33,0,0,1-1,2,3.09,3.09,0,0,0-.63,1.22,8.87,8.87,0,0,1-.93,2A5.81,5.81,0,0,1,96.7,612.36Z" transform="translate(-0.31 -334.29)" style="fill: #7f2c06"/>
    <path d="M322.12,577.25a23.75,23.75,0,0,0-4.28.46,1.87,1.87,0,0,1-2.18-1.06,42.63,42.63,0,0,1-2.19-5.59c2.18.59,4.27-.15,6.39-.45a10.49,10.49,0,0,1,1.68-.15c0,.71,0,1.43,0,2.14A10.51,10.51,0,0,0,322.12,577.25Z" transform="translate(-0.31 -334.29)" style="fill: #7f2c06"/>
    <path d="M372.61,541.08c-1.42-.29-2.56-1.28-4-1.61,0-.1,0-.2,0-.3a8.59,8.59,0,0,1,0-4.87,7.88,7.88,0,0,0,0-2.61,4.4,4.4,0,0,1,1.26-3.21c.42-.54.78-.49,1,.15.63,2.28,1.48,4.48,2.32,6.69.48,1.24,0,2.54-.26,3.79A18.7,18.7,0,0,0,372.61,541.08Z" transform="translate(-0.31 -334.29)" style="fill: #4a2115"/>
    <path d="M118.11,565.5l.36.59c-1.34.3-1.5.44-1.57,1.61,0,.51-.2,1-.23,1.5s-.57,1.23-.08,1.87c-2.57,4.23-4,8.95-5.87,13.49a4.93,4.93,0,0,1-1,1.71,7.73,7.73,0,0,1,.62-3.15c.6-1.86,1.25-3.71,1.93-5.54A15.09,15.09,0,0,1,114,574.3a11.44,11.44,0,0,0,1.92-6.25c.08-1.39,0-2.79,0-4.18a110.8,110.8,0,0,1,.84-11.21,32.56,32.56,0,0,1,.7-5.34c0,1.35-.05,2.71,0,4.06.2,4.37.4,8.74.31,13.11A1.23,1.23,0,0,0,118.11,565.5Z" transform="translate(-0.31 -334.29)" style="fill: #7f2c06"/>
    <path d="M342.3,556.82a2.36,2.36,0,0,0,0,.28c-1.71,1.33-3.62,2.43-4.47,4.65a52.92,52.92,0,0,0-2.07,5.6l-.27.6a.62.62,0,0,0-.3.65h0a.37.37,0,0,0-.25.39v0l-.72-.18a9.22,9.22,0,0,1,.28-1,8.1,8.1,0,0,0,.68-3.44,4.75,4.75,0,0,1,1-3.15,7,7,0,0,0,1.45-4.28,4.67,4.67,0,0,1,.48-2.39C339.6,555.2,340.69,556.49,342.3,556.82Z" transform="translate(-0.31 -334.29)" style="fill: #4a2115"/>
    <path d="M96.12,588.15l1.51.33c-.42,2.28-.14,4.61-.33,6.9-.15,1.83-.21,3.67-.48,5.5a27.81,27.81,0,0,0-.09,3.54c0,.66,0,1.33-.07,2a.63.63,0,0,1-.5-.52c-.36-2.54-1.11-5-1-7.64a15.82,15.82,0,0,1,.4-3.83A21.8,21.8,0,0,0,96.12,588.15Z" transform="translate(-0.31 -334.29)" style="fill: #7f2c06"/>
    <path d="M174.24,559.29l-4.55,1.23a4.34,4.34,0,0,0-.89.25c-2.41,1.29-4.54.23-6.67-.8,2.15-.9,4.25-1.92,6.72-1.36a11.74,11.74,0,0,0,2.45.06A7.09,7.09,0,0,1,174.24,559.29Z" transform="translate(-0.31 -334.29)" style="fill: #4a2115"/>
    <path d="M253.87,582.92a4,4,0,0,1-1.94-4,9,9,0,0,0-.4-4.24,15.83,15.83,0,0,1-.62-6.69,1,1,0,0,1,.72.74,22.24,22.24,0,0,1,1.33,4.9C253.34,576.69,253.58,579.81,253.87,582.92Z" transform="translate(-0.31 -334.29)" style="fill: #4a2115"/>
    <path d="M14.53,543.15c-1.74,1.51-1.8,1.6-3.63.18a4.24,4.24,0,0,0-4.24-.85,12.6,12.6,0,0,1-1.95.33A3.56,3.56,0,0,1,6.32,542a14.5,14.5,0,0,0,2.34-.73c2-1.13,3.42-.25,4.84,1Z" transform="translate(-0.31 -334.29)" style="fill: #7f2c06"/>
    <path d="M445.73,558.69c-.74-.3-.59-1-.45-1.46.58-2.13,1.22-4.24,1.85-6.36,2.72,2.6,2.44,1.79.54,4.72A15.08,15.08,0,0,0,445.73,558.69Z" transform="translate(-0.31 -334.29)" style="fill: #7f2c06"/>
    <path d="M210.54,562.51a2.92,2.92,0,0,0-1.32-1.39,3,3,0,0,1-1.28-1.45,15.43,15.43,0,0,1,4.29.22,12,12,0,0,0,1.7,0h.3l.88,1.62a5.39,5.39,0,0,1-2.18.21c-.71,0-1.44,0-1.82.8Z" transform="translate(-0.31 -334.29)" style="fill: #4a2115"/>
    <path d="M214.23,559.92h-.3a25.86,25.86,0,0,0-3.27-5,4.85,4.85,0,0,1-1.08-1.83h0c.64,0,1,.54,1.34.94,1.64,1.74,3.25,3.51,4.86,5.27,0,.1,0,.2,0,.3C215.27,559.66,214.68,559.43,214.23,559.92Z" transform="translate(-0.31 -334.29)" style="fill: #7f2c06"/>
    <path d="M250.78,566.12h-.57c0-.21,0-.42,0-.63a76.72,76.72,0,0,0-1-8.55,9.82,9.82,0,0,1,0-2.76C249.8,558.13,250.8,562.05,250.78,566.12Z" transform="translate(-0.31 -334.29)" style="fill: #7f2c06"/>
    <path d="M20.47,521.75h-.39a19,19,0,0,1-1.34-5.16A34.86,34.86,0,0,1,20.47,521.75Z" transform="translate(-0.31 -334.29)" style="fill: #4a2115"/>
    <path d="M368.63,539.17c0,.1,0,.2,0,.3-.05.51.16,1.08-.28,1.52-.43-.31-.36-.82-.47-1.24C367.72,539.07,368.22,539.16,368.63,539.17Z" transform="translate(-0.31 -334.29)" style="fill: #7f2c06"/>
    <path d="M85.84,552.79h-.53c0-.71-.5-1.35-.24-2.3A7.2,7.2,0,0,1,85.84,552.79Z" transform="translate(-0.31 -334.29)" style="fill: #7f2c06"/>
    <path d="M208.65,551.86a.6.6,0,0,1,.62.61h0a.61.61,0,0,1-.62-.62Z" transform="translate(-0.31 -334.29)" style="fill: #7f2c06"/>
    <path d="M208.66,551.84c-.17-.08-.35-.17-.37-.4,0,0,.09-.07.12-.06.23.08.22.28.24.48Z" transform="translate(-0.31 -334.29)" style="fill: #7f2c06"/>
    <path d="M560.87,528.28l-.22-.31c.35-.07.14.21.21.32Z" transform="translate(-0.31 -334.29)" style="fill: #7f2c06"/>
    <path d="M209.27,552.47a.61.61,0,0,1,.32.61h0a.63.63,0,0,1-.3-.63Z" transform="translate(-0.31 -334.29)" style="fill: #7f2c06"/>
    <path d="M108.26,589.06c0,.27-.07.52-.36.64A.55.55,0,0,1,108.26,589.06Z" transform="translate(-0.31 -334.29)" style="fill: #7f2c06"/>
    <path d="M49.92,535.11a.67.67,0,0,1,.31-.62h0a.61.61,0,0,1-.31.62Z" transform="translate(-0.31 -334.29)" style="fill: #7f2c06"/>
    <path d="M50.23,534.49a.64.64,0,0,1,.06-.12c.1,0,.07.07-.07.11Z" transform="translate(-0.31 -334.29)" style="fill: #7f2c06"/>
    <path d="M109.76,586.25a.47.47,0,0,1-.24.49A.49.49,0,0,1,109.76,586.25Z" transform="translate(-0.31 -334.29)" style="fill: #7f2c06"/>
    <path d="M490.48,535.11l-.12-.07c0-.1.08-.08.13.06Z" transform="translate(-0.31 -334.29)" style="fill: #7f2c06"/>
    <path d="M116.59,571.07c-.49-.64.06-1.25.08-1.87s.2-1,.23-1.5c.07-1.17.23-1.31,1.57-1.61a2.83,2.83,0,0,1,.81.42c1.11,1.11,2.22.84,3.27,0a4.47,4.47,0,0,1,3.44-1c1.31.11,2.67-.25,3.84.72.47.39,1,.07,1.44-.17a1.08,1.08,0,0,1,1.39.2c1.47,1.29,2.93,2.58,4.46,3.79a3.15,3.15,0,0,1,1.16,1.91c.18.85.42,1.69.61,2.54a1.79,1.79,0,0,0,.62,1.2,6.14,6.14,0,0,1,.85,3.53,40.49,40.49,0,0,1-2.87-5.79,2.83,2.83,0,0,0-1.91-1.82,2.91,2.91,0,0,1-1.89-1.47c-.13-.22-.32-.41-.45-.63a3.88,3.88,0,0,0-4-2.23,17.72,17.72,0,0,1-3.4-.22,2.53,2.53,0,0,0-2.25.71,4.8,4.8,0,0,1-3.63,1.43A3.23,3.23,0,0,0,116.59,571.07Z" transform="translate(-0.31 -334.29)" style="fill: #91400b"/>
    <path d="M335.72,567.35a52.92,52.92,0,0,1,2.07-5.6c.85-2.22,2.76-3.32,4.47-4.65l.95.33c-1.13,1.38-2.22,2.8-3.4,4.14a23.94,23.94,0,0,0-3.2,4.66C336.39,566.64,336.34,567.23,335.72,567.35Z" transform="translate(-0.31 -334.29)" style="fill: #91400b"/>
    <path d="M335.15,568.6a.62.62,0,0,1,.3-.65A.5.5,0,0,1,335.15,568.6Z" transform="translate(-0.31 -334.29)" style="fill: #91400b"/>
    <path d="M140.36,579.22l.4-.08c0,.17,0,.37-.2.38C140.49,579.52,140.42,579.32,140.36,579.22Z" transform="translate(-0.31 -334.29)" style="fill: #91400b"/>
    <path d="M334.9,569a.37.37,0,0,1,.25-.39C335.16,568.78,335.12,568.93,334.9,569Z" transform="translate(-0.31 -334.29)" style="fill: #7f2c06"/>
    <path d="M449.28,596.19a.52.52,0,0,1,.22.48A.44.44,0,0,1,449.28,596.19Z" transform="translate(-0.31 -334.29)" style="fill: #91400b"/>
    <path d="M250.23,573c.59,1.49.28,3,.2,4.55-.1,1.8-1,3.43-1.3,5.21-.12.69-.48.76-1.09.28a22.46,22.46,0,0,1-4.19-3.79,20.43,20.43,0,0,0-4.13-3.43,3,3,0,0,1-1-1,11.29,11.29,0,0,1,3.66-.32,11.94,11.94,0,0,0,3.13-.7c1-.19,1.89-.48,2.8.16.3.22.57.08.83-.14Z" transform="translate(-0.31 -334.29)" style="fill: #7f2c06"/>
    <path d="M99.21,606.72s0,.11-.06.11-.07-.06.07-.1Z" transform="translate(-0.31 -334.29)" style="fill: #361014"/>
  </g>
</svg>
