<svg id="Calque_1" data-name="Calque 1" xmlns="http://www.w3.org/2000/svg" width="25.4mm" height="34.92mm" viewBox="0 0 72 99">
  <title>lock</title>
  <path d="M492.66,562.89H443.34A11.34,11.34,0,0,0,432,574.23v40.32a11.34,11.34,0,0,0,11.34,11.34h49.32A11.34,11.34,0,0,0,504,614.55V574.23A11.34,11.34,0,0,0,492.66,562.89Zm-21.66,34v9.51a3,3,0,0,1-6,0v-9.51a9,9,0,1,1,6,0Z" transform="translate(-432 -526.89)" style="fill: #201030"/>
  <path d="M495,560.64H481.5s0-20.25-13.5-20.25-13.5,20.25-13.5,20.25H441s0-33.75,27-33.75S495,560.64,495,560.64Z" transform="translate(-432 -526.89)" style="fill: #201030"/>
</svg>
