<svg id="Calque_1" data-name="Calque 1" xmlns="http://www.w3.org/2000/svg" xmlns:xlink="http://www.w3.org/1999/xlink" width="210.03mm" height="207.14mm" viewBox="0 0 595.37 587.16">
  <defs>
    <linearGradient id="Dégradé_sans_nom_11" data-name="Dégradé sans nom 11" x1="297.59" y1="709.05" x2="297.59" y2="121.89" gradientUnits="userSpaceOnUse">
      <stop offset="0" stop-color="#49cffa"/>
      <stop offset="1" stop-color="#85f2ff"/>
    </linearGradient>
  </defs>
  <title>palette_icon</title>
  <path d="M567.9,287.33c-63-126-180-153-180-153s-171-54-288,63S.9,428.18.9,428.18C27.3,609.73,124.66,687.84,261.75,708A92.41,92.41,0,0,0,313,701.23c22.43-10,45.42-30.61,29.94-71.9-14.47-38.57-8.27-59.06.61-69.77a30.84,30.84,0,0,1,24.8-10.91c29.9,1,142-14.7,181.59-54.32C567.9,476.33,630.9,413.33,567.9,287.33ZM112.4,412.05a49.5,49.5,0,1,1,49.5-49.5A49.5,49.5,0,0,1,112.4,412.05Zm99-135a49.5,49.5,0,1,1,49.5-49.5A49.5,49.5,0,0,1,211.4,277.05Zm162,0a49.5,49.5,0,1,1,49.5-49.5A49.5,49.5,0,0,1,373.4,277.05Zm99,135a49.5,49.5,0,1,1,49.5-49.5A49.5,49.5,0,0,1,472.4,412.05Z" transform="translate(0.1 -121.89)" style="fill: url(#Dégradé_sans_nom_11)"/>
</svg>
