<svg xmlns="http://www.w3.org/2000/svg" width="49.319" height="47.205" viewBox="0 0 49.319 47.205">
  <path id="Icon_awesome-star" data-name="Icon awesome-star" d="M23.455,1.641l-6.02,12.205L3.967,15.81a2.951,2.951,0,0,0-1.632,5.033l9.744,9.5-2.3,13.413a2.948,2.948,0,0,0,4.277,3.107L26.1,40.525,38.15,46.858a2.95,2.95,0,0,0,4.277-3.107l-2.3-13.413,9.744-9.5a2.951,2.951,0,0,0-1.632-5.033L34.766,13.847,28.747,1.641a2.952,2.952,0,0,0-5.291,0Z" transform="translate(-1.441 0.001)" fill="#b23dd8"/>
</svg>
