<svg id="Calque_1" data-name="Calque 1" xmlns="http://www.w3.org/2000/svg" width="210mm" height="49.98mm" viewBox="0 0 595.28 141.69">
  <title>snow</title>
  <g>
    <path d="M595.43,491.55c-5.87-1.81-9.36-5.89-10.94-11.69a9.08,9.08,0,0,1-.14-5,24.68,24.68,0,0,1-9.74-4.13A24.39,24.39,0,0,1,564.51,457c-.5-1.78-.79-3.61-1.22-5.41a.9.9,0,0,0-.52-.6,32.36,32.36,0,0,1-12.72-6.77,56.94,56.94,0,0,1-4.23-4.28,32.57,32.57,0,0,1-3-3.34c-1.46-2.05-2.79-4.19-4.13-6.32-.26-.4-.4-.62-1-.43a21.34,21.34,0,0,1-7.26,1.27,16.69,16.69,0,0,1-7.14-1.44.85.85,0,0,0-.6.06,9.54,9.54,0,0,1-6.58.55,6.67,6.67,0,0,1-3-11.14l.4-.36c-1.87-3-4.75-4.16-8-4.7-2.13-.36-4.29-.5-6.44-.76a2.38,2.38,0,0,0-1.93.54c-.43.35-.93.62-1.41,1a5.24,5.24,0,0,1,4.8,3.08,4.87,4.87,0,0,1,0,4,5,5,0,1,1-8.8-4.74c-.65.24-1.21.44-1.77.66a59.92,59.92,0,0,0-7.45,3.35,48.16,48.16,0,0,1-11.06,4.08,49.81,49.81,0,0,0-4.93,1.16,23.12,23.12,0,0,0-6.57,3.19c-1.25,1-2.54,1.92-3.7,3a11.93,11.93,0,0,1-10.5,3.38,9.28,9.28,0,0,1-5.44-2.69,16.27,16.27,0,0,0-4.75-3.91,22.67,22.67,0,0,0-2.88-1.08,1,1,0,0,0-.83.3,9.18,9.18,0,0,1-5.34,3.54,4.84,4.84,0,0,1-2.2.1,6.13,6.13,0,0,1-2.55-1.2,2.49,2.49,0,0,0-2.6-.49c-4.08,1.05-8.17,2.06-12.25,3.08a27.8,27.8,0,0,1-13.77-.29c-2.44-.62-4.85-1.39-7.31-1.93-1.45-.32-3-.27-4.45-.51-3-.48-6.07-1.06-9.1-1.57a12,12,0,0,0-2.15-.23c-3.89.06-7.79.17-11.69.23a35.14,35.14,0,0,0-3.55-.06,40,40,0,0,0-5,1c-2.94.74-5.84,1.64-8.8,2.32a12.21,12.21,0,0,1-5.82-.17c-1.82-.45-3.65-.87-5.43-1.42s-3.57-1.3-5.37-1.91c-2.45-.85-4.92-1.68-7.39-2.47a23.43,23.43,0,0,1-7.38-3.42,8.79,8.79,0,0,1-2.76-3.76,1.08,1.08,0,0,0-1.17-.73c-2.86-.11-5.71-.28-8.56-.43a1.21,1.21,0,0,0-.54,0,9.22,9.22,0,0,1-4.79.49.8.8,0,0,0-.92.46,3.09,3.09,0,0,1-5.48,0c-.33-.52-.33-.52-1.32-.33-.06,1.43-.27,2.87-1.49,3.8a5.72,5.72,0,0,1-2.46,1.17,4.37,4.37,0,0,1-5-3.27l-1.65.13a35.33,35.33,0,0,1-14.25-2.24,13.2,13.2,0,0,0-4.87-.62c-1.83.09-3.66.24-5.49.29-1.49.05-3,0-4.49,0-3.58-.11-7.17-.14-10.75-.38-2.77-.19-5.52-.62-8.28-1-2.07-.27-4.12-.68-6.2-.86a5.58,5.58,0,0,0-2.2.62,11.35,11.35,0,0,1-9.74-.77,9.57,9.57,0,0,0-3.38-.6A37.84,37.84,0,0,0,194,416a20.19,20.19,0,0,1-8.3-.26c-1.78-.47-3.46-1.32-5.24-1.83a30.08,30.08,0,0,0-4.45-.82c-2.68-.34-5.39-.46-8-.94a10.1,10.1,0,0,0-7.38,1.47c-2.29,1.42-4.49,3-6.64,4.64a11.11,11.11,0,0,1-8.39,2,11.73,11.73,0,0,1-7.56-4.09c-.27-.3-.61-.55-.9-.84a1.25,1.25,0,0,0-1.56-.19L128,419c-1.87.93-3.72,1.88-5.6,2.79a.86.86,0,0,0-.56.88,4.7,4.7,0,0,1-3.38,4.64,4.53,4.53,0,0,1-5.48-2.38c-.35-.63-.89-.6-1.37-.61-4.52-.09-8-2.45-11.26-5.19-1.92-1.6-3.82-3.21-5.73-4.81-.06,0-.13-.08,0,0-1.25.86-2.37,1.77-3.61,2.46a11,11,0,0,1-6.17,1.07c-1.9-.12-3.79-.36-5.69-.52a36.45,36.45,0,0,0-6.23-.42c-2.15.18-4.46,0-6.4,1.39a1.2,1.2,0,0,0-.66,1,11.28,11.28,0,0,1-12.48,10.51A2.18,2.18,0,0,0,51,431.07c-3.16,5.14-6.18,10.35-9.45,15.42a50.83,50.83,0,0,1-6.82,8.68,1.09,1.09,0,0,0-.25.91,13.89,13.89,0,0,1-6.89,16.36,13.39,13.39,0,0,1-8.1,1.42,32.73,32.73,0,0,1-4.62-1.42c-.26-.08-.61-.18-.81-.06a37,37,0,0,1-9.86,3.52c-1.32.31-2.69.41-4,.61V359.78c.26.15.52.32.79.46,1.45.74,2.86,1.56,4.35,2.19,1.94.82,4,1.48,5.93,2.21a49.38,49.38,0,0,0,8.77,2.6c3.32.58,6.61,1.31,9.93,1.89,2.71.47,5.43.84,8.16,1.22,1.35.19,2.73.22,4.07.46A55.35,55.35,0,0,1,53.75,374c4,1.66,8,3.46,12,5.21,1.64.73,3.22,1.58,4.89,2.23a27.79,27.79,0,0,0,3.85,1.09,39.86,39.86,0,0,0,5.35,1.15,32.62,32.62,0,0,0,9.41-.1c1.56-.3,3.21-.28,4.72-.73,2.34-.69,4.58-1.72,6.89-2.5,3-1,5.93-2.1,9-2.83a99.47,99.47,0,0,1,9.87-1.77,26.9,26.9,0,0,1,11.43.5c5.19,1.52,10.54,2.12,15.85,3,3.15.51,6.31,1,9.46,1.43s6.16.95,9.25,1.28a57.79,57.79,0,0,1,8.59,1.49,2.45,2.45,0,0,0,1.77-.12,11.57,11.57,0,0,1,9-.17,1.92,1.92,0,0,0,1.23-.05c1.3-.51,2.56-1.1,3.85-1.64a36.24,36.24,0,0,1,11.37-2.73A50.4,50.4,0,0,1,215.91,380c2.9.63,5.78,1.39,8.66,2.13,1.7.43,3.37.95,5.06,1.37a15,15,0,0,0,3.74.71c2.57-.05,5.14-.43,7.71-.57,2.94-.15,5.88-.17,8.82-.28,1.13,0,2.26-.11,3.38-.26,2.47-.34,4.92-.83,7.39-1.1s5.15-.32,7.71-.56c1.79-.17,3.56-.61,5.35-.73,2-.14,4.07,0,6.1-.1a10.33,10.33,0,0,1,7.74,3.09,1.23,1.23,0,0,0,1.68.16c3.24-1.63,6.56-2,10-.43a2.07,2.07,0,0,0,1,.15,8.63,8.63,0,0,1,5.18.84,4.32,4.32,0,0,0,2.3.4,62.19,62.19,0,0,0,7.92-1.15c4.46-.68,8.82-1.81,13.21-2.78,3.44-.77,6.92-1.35,10.42-1.82,2.87-.39,5.79-.5,8.69-.71a28.37,28.37,0,0,1,14.62,2.44,24,24,0,0,1,6.79,5c1.9,2,3.71,4,5.58,6a2,2,0,0,0,.83.53,56.62,56.62,0,0,0,12.37,2.46c2.44.15,4.87.47,7.3.67s5,.42,7.56.51a39.17,39.17,0,0,0,6.41,0,71.07,71.07,0,0,0,8.53-1.69,49.14,49.14,0,0,0,6.44-2.15c2.79-1.12,5.5-2.45,8.26-3.65,2.6-1.13,5.19-2.29,7.83-3.31q5.65-2.19,11.39-4.16c1.87-.63,3.82-1,5.74-1.5s4.08-1,6.11-1.52c1.78-.44,3.6-.75,5.32-1.35A35.91,35.91,0,0,1,477,375c2.64-.29,5.3-.38,7.94-.66,3.71-.38,7.44-.71,11.12-1.33a32.8,32.8,0,0,0,7.72-2.11,90.11,90.11,0,0,0,9.24-5.16,52.49,52.49,0,0,1,11.27-5.37c3.43-1.07,6.91-2,10.39-2.92a44.58,44.58,0,0,1,12.49-1.35c5.31.14,10.61.53,15.92.76a47.77,47.77,0,0,0,15.35-1.34c4.35-1.25,8.64-2.71,12.94-4.13,1.34-.43,2.62-1,3.93-1.54.05,0,.14.05.14.08,0,.2,0,.41,0,.61Z" transform="translate(-0.16 -349.86)" style="fill: #fff"/>
    <path d="M55,439.4A5.55,5.55,0,0,1,60.32,446a5.25,5.25,0,0,1-10.45.38,6.62,6.62,0,0,1,.39-4.07A5.35,5.35,0,0,1,55,439.4Z" transform="translate(-0.16 -349.86)" style="fill: #fff"/>
    <path d="M133,422.06a4.43,4.43,0,1,1-4.49,4.38A4.41,4.41,0,0,1,133,422.06Z" transform="translate(-0.16 -349.86)" style="fill: #fff"/>
    <path d="M560.15,455.29a3.48,3.48,0,0,1,3.48,2.73,3.68,3.68,0,0,1-1.81,4,4.22,4.22,0,0,1-3.76.51,3.58,3.58,0,0,1-.59-6.38,19.17,19.17,0,0,1,2.6-1.07Z" transform="translate(-0.16 -349.86)" style="fill: #fff"/>
    <path d="M436.67,437.92a3.66,3.66,0,0,1-3.72,3.8,3.79,3.79,0,1,1,0-7.57A3.67,3.67,0,0,1,436.67,437.92Z" transform="translate(-0.16 -349.86)" style="fill: #fff"/>
    <path d="M502.14,423.55a3.16,3.16,0,0,1,3.31,3.12,3.45,3.45,0,0,1-3.4,3.31,3.22,3.22,0,1,1,.09-6.43Z" transform="translate(-0.16 -349.86)" style="fill: #fff"/>
    <path d="M289.32,422.27a1.56,1.56,0,0,1,1.74,1.63,1.77,1.77,0,0,1-3.53-.07A1.58,1.58,0,0,1,289.32,422.27Z" transform="translate(-0.16 -349.86)" style="fill: #fff"/>
    <path d="M422,433.78c.69.09,1,.37.92.84a1.09,1.09,0,0,1-.69.71.61.61,0,0,1-.75-.72C421.49,434.31,421.79,434.05,422,433.78Z" transform="translate(-0.16 -349.86)" style="fill: #fff"/>
  </g>
</svg>
