<svg id="Calque_2" data-name="Calque 2" xmlns="http://www.w3.org/2000/svg" width="1845" height="497.02" viewBox="0 0 1845 497.02">
  <title>cloud</title>
  <path d="M9,801s422,5,433,1c6.65-2.42,91.84-30,73-79-5-13-29-48-83-39s-63,54-63,54-4.18-44.68,45-63c51-19,99,20,108,29s17,23-1,68,172,38,172,38H1854l-423-9s-99-27-117-72-90-144-198-153-189,45-207,63-43.66,79.49-27,99c35,41,71.64,13.77,80,5,61-64-14-60-15-61-5.66-5.66,98-6,7,79-22.37,20.89-81,13-90-32-6.19-31,12.86-76,3-102-7.64-20.13-40-44-93-23s-81,57-140,44-109-38-111-99,45-82,45-82,63-24,78,49-5-13-15-27-38-24-52-18-32,39-32,39-27,79,56,102,163-53,163-53,82-68-1-174-218-63-218-63S409,359,370,468,304,659,232,724C139.72,807.31,9,801,9,801Z" transform="translate(-9 -313.37)" style="fill: #fff"/>
</svg>
